<svg width="35" height="27" viewBox="0 0 35 27" fill="none" xmlns="http://www.w3.org/2000/svg">
<path fill-rule="evenodd" clip-rule="evenodd" d="M4.14902 3.49023C4.31411 3.5392 4.47351 3.61764 4.61956 3.72666L15.2973 11.698C15.2973 11.698 15.2973 11.698 15.2973 11.698C16.6022 12.6721 18.3978 12.6721 19.7027 11.698L30.3804 3.72658C30.5265 3.61757 30.6858 3.53914 30.8509 3.49017C30.508 3.18581 30.0549 3 29.5556 3H5.44444C4.9451 3 4.49198 3.18583 4.14902 3.49023ZM31.5 6.63457L21.4973 14.102C19.128 15.8707 15.872 15.8708 13.5027 14.102L3.5 6.63465V22.0714C3.5 23.13 4.36402 24 5.44444 24H29.5556C30.636 24 31.5 23.13 31.5 22.0714V6.63457ZM0.5 4.92857C0.5 2.20007 2.72024 0 5.44444 0H29.5556C32.2798 0 34.5 2.20007 34.5 4.92857V22.0714C34.5 24.7999 32.2798 27 29.5556 27H5.44444C2.72024 27 0.5 24.7999 0.5 22.0714V4.92857Z" fill="black"/>
</svg>
