<svg width="37" height="27" viewBox="0 0 37 27" fill="none" xmlns="http://www.w3.org/2000/svg">
<path fill-rule="evenodd" clip-rule="evenodd" d="M0.570046 13.047C2.96747 5.47958 10.092 0 18.5 0C26.9079 0 34.0325 5.47963 36.43 13.047C36.5233 13.3418 36.5233 13.6582 36.43 13.953C34.0325 21.5204 26.9079 27 18.5 27C10.092 27 2.96744 21.5204 0.570044 13.953C0.476651 13.6582 0.476652 13.3418 0.570046 13.047ZM3.58124 13.5C5.7268 19.608 11.5925 24 18.5 24C25.4075 24 31.2731 19.608 33.4188 13.5C31.2731 7.39199 25.4075 3 18.5 3C11.5925 3 5.72683 7.39196 3.58124 13.5ZM18.4992 9.85714C16.4505 9.85714 14.8117 11.5002 14.8117 13.5C14.8117 15.4998 16.4505 17.1429 18.4992 17.1429C20.548 17.1429 22.1866 15.4998 22.1866 13.5C22.1866 11.5002 20.548 9.85714 18.4992 9.85714ZM11.8117 13.5C11.8117 9.81897 14.8181 6.85714 18.4992 6.85714C22.1804 6.85714 25.1866 9.81898 25.1866 13.5C25.1866 17.181 22.1804 20.1429 18.4992 20.1429C14.8181 20.1429 11.8117 17.181 11.8117 13.5Z" fill="black"/>
</svg>
