<svg width="28" height="42" viewBox="0 0 28 42" fill="none" xmlns="http://www.w3.org/2000/svg">
<path fill-rule="evenodd" clip-rule="evenodd" d="M20 0.166687C17.239 0.166687 15 2.6646 15 5.7469V26.9948C13.7061 28.0739 12.766 29.5449 12.3095 31.2047C11.8529 32.8644 11.9026 34.6309 12.4515 36.2599C13.0004 37.889 14.0216 39.3003 15.3738 40.2987C16.726 41.2971 18.3425 41.8334 20 41.8334C21.6575 41.8334 23.274 41.2971 24.6262 40.2987C25.9784 39.3003 26.9996 37.889 27.5485 36.2599C28.0974 34.6309 28.1471 32.8644 27.6905 31.2047C27.234 29.5449 26.2939 28.0739 25 26.9948V5.7469C25 2.6646 22.761 0.166687 20 0.166687ZM23 18.9802C21.543 19.0052 20.178 18.6365 18.982 18.3136C18.252 18.1156 17.586 17.9365 17 17.874V5.7469C17 3.89794 18.343 2.39898 20 2.39898C21.657 2.39898 23 3.89794 23 5.7469V6.39169H21C20.7348 6.39169 20.4804 6.50143 20.2929 6.69678C20.1054 6.89214 20 7.15709 20 7.43335C20 7.70962 20.1054 7.97457 20.2929 8.16992C20.4804 8.36527 20.7348 8.47502 21 8.47502H23V10.5584H21C20.7348 10.5584 20.4804 10.6681 20.2929 10.8635C20.1054 11.0588 20 11.3238 20 11.6C20 11.8763 20.1054 12.1412 20.2929 12.3366C20.4804 12.5319 20.7348 12.6417 21 12.6417H23V14.725H21C20.7348 14.725 20.4804 14.8348 20.2929 15.0301C20.1054 15.2255 20 15.4904 20 15.7667C20 16.043 20.1054 16.3079 20.2929 16.5033C20.4804 16.6986 20.7348 16.8084 21 16.8084H23V18.9802Z" fill="#4277FF"/>
<path d="M6.32989 8.50004C6.32989 8.22377 6.22453 7.95882 6.03699 7.76347C5.84946 7.56812 5.5951 7.45837 5.32989 7.45837C5.06467 7.45837 4.81032 7.56812 4.62278 7.76347C4.43524 7.95882 4.32989 8.22377 4.32989 8.50004V11.9042L1.49989 10.2021C1.38611 10.1326 1.26028 10.0873 1.12961 10.0687C0.998947 10.0501 0.866039 10.0586 0.73854 10.0937C0.61104 10.1288 0.491468 10.1898 0.386706 10.2733C0.281945 10.3567 0.194064 10.4609 0.128122 10.5799C0.0621807 10.6989 0.0194809 10.8303 0.00248227 10.9665C-0.0145163 11.1027 -0.00547828 11.2411 0.0290755 11.3737C0.0636292 11.5063 0.123016 11.6304 0.203818 11.739C0.28462 11.8475 0.38524 11.9384 0.499885 12.0063L3.32989 13.7084L0.499885 15.4105C0.38524 15.4784 0.28462 15.5692 0.203818 15.6778C0.123016 15.7863 0.0636292 15.9105 0.0290755 16.0431C-0.00547828 16.1756 -0.0145163 16.314 0.00248227 16.4503C0.0194809 16.5865 0.0621807 16.7179 0.128122 16.8368C0.194064 16.9558 0.281945 17.06 0.386706 17.1435C0.491468 17.2269 0.61104 17.2879 0.73854 17.3231C0.866039 17.3582 0.998947 17.3667 1.12961 17.3481C1.26028 17.3294 1.38611 17.2841 1.49989 17.2146L4.32989 15.5125V18.9167C4.32989 19.193 4.43524 19.4579 4.62278 19.6533C4.81032 19.8486 5.06467 19.9584 5.32989 19.9584C5.5951 19.9584 5.84946 19.8486 6.03699 19.6533C6.22453 19.4579 6.32989 19.193 6.32989 18.9167V15.5125L9.15989 17.2146C9.27366 17.2841 9.3995 17.3294 9.53016 17.3481C9.66083 17.3667 9.79373 17.3582 9.92123 17.3231C10.0487 17.2879 10.1683 17.2269 10.2731 17.1435C10.3778 17.06 10.4657 16.9558 10.5316 16.8368C10.5976 16.7179 10.6403 16.5865 10.6573 16.4503C10.6743 16.314 10.6652 16.1756 10.6307 16.0431C10.5961 15.9105 10.5368 15.7863 10.456 15.6778C10.3752 15.5692 10.2745 15.4784 10.1599 15.4105L7.32989 13.7084L10.1599 12.0063C10.2745 11.9384 10.3752 11.8475 10.456 11.739C10.5368 11.6304 10.5961 11.5063 10.6307 11.3737C10.6652 11.2411 10.6743 11.1027 10.6573 10.9665C10.6403 10.8303 10.5976 10.6989 10.5316 10.5799C10.4657 10.4609 10.3778 10.3567 10.2731 10.2733C10.1683 10.1898 10.0487 10.1288 9.92123 10.0937C9.79373 10.0586 9.66083 10.0501 9.53016 10.0687C9.3995 10.0873 9.27366 10.1326 9.15989 10.2021L6.32989 11.9042V8.50004Z" fill="#4277FF"/>
</svg>
