<svg width="50" height="42" viewBox="0 0 50 42" fill="none" xmlns="http://www.w3.org/2000/svg">
<path d="M46.0938 16.5312H43.9453L37.2715 9.86328C36.9097 9.49931 36.4794 9.21073 36.0053 9.01427C35.5313 8.81781 35.0229 8.71736 34.5098 8.71875H28.125V5.59375H32.0312C32.6529 5.59375 33.249 5.34682 33.6885 4.90728C34.1281 4.46774 34.375 3.8716 34.375 3.25C34.375 2.6284 34.1281 2.03226 33.6885 1.59272C33.249 1.15318 32.6529 0.90625 32.0312 0.90625H19.5312C18.9096 0.90625 18.3135 1.15318 17.874 1.59272C17.4344 2.03226 17.1875 2.6284 17.1875 3.25C17.1875 3.8716 17.4344 4.46774 17.874 4.90728C18.3135 5.34682 18.9096 5.59375 19.5312 5.59375H23.4375V8.71875H12.5C11.464 8.71875 10.4704 9.1303 9.73786 9.86286C9.0053 10.5954 8.59375 11.589 8.59375 12.625V22H5.46875V18.0938C5.46875 17.4721 5.22182 16.876 4.78228 16.4365C4.34274 15.9969 3.7466 15.75 3.125 15.75C2.5034 15.75 1.90726 15.9969 1.46772 16.4365C1.02818 16.876 0.78125 17.4721 0.78125 18.0938V30.5938C0.78125 31.2154 1.02818 31.8115 1.46772 32.251C1.90726 32.6906 2.5034 32.9375 3.125 32.9375C3.7466 32.9375 4.34274 32.6906 4.78228 32.251C5.22182 31.8115 5.46875 31.2154 5.46875 30.5938V26.6875H8.59375V29.9473C8.59236 30.4604 8.69281 30.9688 8.88927 31.4428C9.08573 31.9169 9.37431 32.3472 9.73828 32.709L17.416 40.3867C17.7778 40.7507 18.2081 41.0393 18.6822 41.2357C19.1562 41.4322 19.6646 41.5326 20.1777 41.5312H34.5098C35.0229 41.5326 35.5313 41.4322 36.0053 41.2357C36.4794 41.0393 36.9097 40.7507 37.2715 40.3867L43.9453 33.7188H46.0938C47.1298 33.7188 48.1233 33.3072 48.8559 32.5746C49.5884 31.8421 50 30.8485 50 29.8125V20.4375C50 19.4015 49.5884 18.4079 48.8559 17.6754C48.1233 16.9428 47.1298 16.5312 46.0938 16.5312ZM45.3125 29.0312H42.9688C42.6609 29.031 42.356 29.0914 42.0714 29.2091C41.7869 29.3267 41.5284 29.4992 41.3105 29.7168L34.1797 36.8438H20.5078L13.2812 29.6172V13.4062H34.1797L41.3047 20.5332C41.5232 20.7515 41.7827 20.9244 42.0683 21.0421C42.3539 21.1597 42.6599 21.2198 42.9688 21.2188H45.3125V29.0312Z" fill="#4277FF"/>
</svg>

