<svg width="37" height="50" viewBox="0 0 37 50" fill="none" xmlns="http://www.w3.org/2000/svg">
<path d="M35.7957 14.5831L28.778 7.47061C28.0064 6.68857 26.9615 6.25 25.8712 6.25H16.4444V4.1667C16.4445 1.86611 14.6032 0 12.3333 0H8.22219C5.95228 0 4.11105 1.86611 4.11105 4.1667V6.60547C1.71559 7.46309 0 9.77783 0 12.5V43.75C0 47.2012 2.76055 50 6.16667 50H30.8333C34.2379 50 37 47.2006 37 43.75V17.5292C37 16.4241 36.5673 15.3651 35.7957 14.5831ZM30.8333 45.8333H6.16667C5.03142 45.8333 4.11114 44.9003 4.11114 43.75V12.5C4.11114 11.3485 5.03055 10.4167 6.16667 10.4167C7.30191 10.4167 8.22219 9.48398 8.22219 8.3334V4.1667H12.3333V8.3334C12.3333 9.48398 13.2536 10.4167 14.3889 10.4167H25.8712L32.8887 17.5294L32.8889 43.75C32.8889 44.8994 31.9674 45.8333 30.8333 45.8333Z" fill="#4277FF"/>
<path d="M16.9383 31.1227C20.6126 31.8907 23.9818 29.0774 23.9818 25.3471C23.9818 24.3556 23.7087 23.4542 23.2015 22.6405C23.0934 22.4666 23.0064 22.3278 22.8124 22.0198C22.0103 20.7459 21.6807 20.1908 21.3413 19.5028L19.9972 16.7764C19.2401 15.2403 17.0775 15.24 16.3199 16.7758L15.2407 18.9633C14.3941 20.6795 13.9782 21.4272 13.3889 22.1977C12.7755 23.0033 12.4206 23.9038 12.3484 24.9422C12.143 27.8386 14.1315 30.5342 16.9383 31.1227ZM16.449 25.238C16.4628 25.0404 16.5116 24.9165 16.6407 24.7469C17.2086 24.0045 17.6276 23.3331 18.164 22.3151C18.4519 22.8264 18.7997 23.3925 19.3305 24.2354L19.3468 24.2612C19.5382 24.5653 19.6203 24.6961 19.7243 24.8635C19.8295 25.0322 19.8705 25.1679 19.8705 25.347C19.8705 26.4486 18.8816 27.2744 17.7697 27.042C16.9922 26.8791 16.3905 26.0635 16.449 25.238Z" fill="#4277FF"/>
<path d="M24.6665 35.4165H12.3331C11.1979 35.4165 10.2776 36.3492 10.2776 37.4998C10.2776 38.6504 11.1979 39.5831 12.3331 39.5831H24.6665C25.8017 39.5831 26.722 38.6504 26.722 37.4998C26.722 36.3492 25.8017 35.4165 24.6665 35.4165Z" fill="#4277FF"/>
</svg>
