<svg width="40" height="50" viewBox="0 0 40 50" fill="none" xmlns="http://www.w3.org/2000/svg">
<path d="M33.9982 0.00376657C30.5666 -0.114495 27.6921 2.56666 27.5745 5.99371C27.4553 9.42076 30.1409 12.2932 33.5717 12.4115C37.0024 12.5297 39.8787 9.84684 39.9962 6.42057C40.1155 2.99439 37.429 0.121931 33.9982 0.00376657Z" fill="#4277FF"/>
<path d="M32.3451 14.9761C29.9963 14.0494 27.3396 15.1987 26.4132 17.5468V17.5442L21.4495 29.9259L11.7569 27.0778C9.65801 26.2797 7.31113 27.2821 6.44142 29.3512L0.249184 45.5903C-0.431508 47.2075 0.33015 49.0714 1.95204 49.7513C3.57383 50.431 5.4394 49.6695 6.12019 48.0516L12.5526 36.2689L20.0078 39.2152C24.4248 41.0322 27.544 39.2152 29.3626 34.8032L34.9201 20.9018C35.8472 18.5553 34.6963 15.9029 32.3451 14.9761Z" fill="#4277FF"/>
</svg>
