<svg width="137" height="25" viewBox="0 0 137 25" fill="none" xmlns="http://www.w3.org/2000/svg">
<path d="M11.4671 1.35062C11.7943 0.580729 11.958 0.195785 12.1859 0.0772437C12.3838 -0.0257479 12.6162 -0.0257479 12.8141 0.0772437C13.042 0.195785 13.2057 0.580729 13.5329 1.35062L16.1397 7.48288C16.2365 7.71047 16.2848 7.82427 16.3598 7.91141C16.4259 7.98852 16.5069 8.0502 16.5972 8.09242C16.6994 8.14015 16.8176 8.15322 17.054 8.17937L23.4213 8.88408C24.2207 8.97255 24.6204 9.01678 24.7983 9.20739C24.9528 9.37295 25.0247 9.60479 24.9924 9.83401C24.9554 10.0979 24.6568 10.38 24.0597 10.9443L19.3033 15.439C19.1269 15.6057 19.0386 15.6892 18.9827 15.7907C18.9332 15.8807 18.9023 15.9805 18.892 16.0836C18.8802 16.2003 18.9048 16.3221 18.9542 16.566L20.2827 23.1337C20.4495 23.9583 20.5329 24.3705 20.415 24.6068C20.3125 24.8123 20.1245 24.9555 19.9067 24.9942C19.6559 25.0386 19.3077 24.8281 18.6114 24.407L13.065 21.0525C12.8592 20.928 12.7563 20.8659 12.6469 20.8414C12.5501 20.8199 12.45 20.8199 12.3531 20.8414C12.2437 20.8659 12.1408 20.928 11.935 21.0525L6.38869 24.407C5.69237 24.8281 5.34421 25.0386 5.09342 24.9942C4.87557 24.9555 4.6875 24.8123 4.5851 24.6068C4.46722 24.3705 4.55061 23.9583 4.7174 23.1337L6.04586 16.566C6.09517 16.3221 6.11982 16.2003 6.10812 16.0836C6.09776 15.9805 6.06684 15.8807 6.01736 15.7907C5.96145 15.6892 5.87319 15.6057 5.69667 15.439L0.940386 10.9443C0.34326 10.38 0.04469 10.0979 0.00756843 9.83401C-0.024662 9.60479 0.047164 9.37295 0.201729 9.20739C0.379675 9.01678 0.779375 8.97255 1.57878 8.88408L7.94612 8.17937C8.18244 8.15322 8.3006 8.14015 8.40277 8.09242C8.49317 8.0502 8.57412 7.98852 8.64036 7.91141C8.71521 7.82427 8.76358 7.71047 8.86034 7.48288L11.4671 1.35062Z" fill="black"/>
<path d="M39.4114 1.35062C39.7387 0.580729 39.9024 0.195785 40.1302 0.0772437C40.3282 -0.0257479 40.5605 -0.0257479 40.7585 0.0772437C40.9863 0.195785 41.15 0.580729 41.4773 1.35062L44.084 7.48288C44.1808 7.71047 44.2292 7.82427 44.3041 7.91141C44.3702 7.98852 44.4512 8.0502 44.5416 8.09242C44.6438 8.14015 44.762 8.15322 44.9983 8.17937L51.3657 8.88408C52.1651 8.97255 52.5647 9.01678 52.7427 9.20739C52.8972 9.37295 52.969 9.60479 52.9368 9.83401C52.8997 10.0979 52.6012 10.38 52.0041 10.9443L47.2477 15.439C47.0712 15.6057 46.9829 15.6892 46.9271 15.7907C46.8776 15.8807 46.8466 15.9805 46.8363 16.0836C46.8246 16.2003 46.8492 16.3221 46.8985 16.566L48.227 23.1337C48.3938 23.9583 48.4772 24.3705 48.3593 24.6068C48.2568 24.8123 48.0688 24.9555 47.851 24.9942C47.6002 25.0386 47.252 24.8281 46.5557 24.407L41.0094 21.0525C40.8035 20.928 40.7006 20.8659 40.5912 20.8414C40.4944 20.8199 40.3943 20.8199 40.2975 20.8414C40.1881 20.8659 40.0851 20.928 39.8793 21.0525L34.333 24.407C33.6367 24.8281 33.2885 25.0386 33.0378 24.9942C32.8199 24.9555 32.6318 24.8123 32.5294 24.6068C32.4116 24.3705 32.4949 23.9583 32.6617 23.1337L33.9902 16.566C34.0395 16.3221 34.0642 16.2003 34.0525 16.0836C34.0421 15.9805 34.0112 15.8807 33.9617 15.7907C33.9058 15.6892 33.8175 15.6057 33.641 15.439L28.8847 10.9443C28.2876 10.38 27.989 10.0979 27.9519 9.83401C27.9197 9.60479 27.9915 9.37295 28.1461 9.20739C28.324 9.01678 28.7237 8.97255 29.5231 8.88408L35.8905 8.17937C36.1268 8.15322 36.2449 8.14015 36.3471 8.09242C36.4375 8.0502 36.5185 7.98852 36.5847 7.91141C36.6595 7.82427 36.7079 7.71047 36.8047 7.48288L39.4114 1.35062Z" fill="black"/>
<path d="M67.3558 1.35062C67.683 0.580729 67.8467 0.195785 68.0746 0.0772437C68.2725 -0.0257479 68.5049 -0.0257479 68.7028 0.0772437C68.9307 0.195785 69.0944 0.580729 69.4216 1.35062L72.0283 7.48288C72.1252 7.71047 72.1735 7.82427 72.2484 7.91141C72.3146 7.98852 72.3956 8.0502 72.4859 8.09242C72.5881 8.14015 72.7063 8.15322 72.9427 8.17937L79.31 8.88408C80.1094 8.97255 80.509 9.01678 80.687 9.20739C80.8415 9.37295 80.9133 9.60479 80.8811 9.83401C80.8441 10.0979 80.5455 10.38 79.9484 10.9443L75.192 15.439C75.0156 15.6057 74.9272 15.6892 74.8714 15.7907C74.8219 15.8807 74.791 15.9805 74.7806 16.0836C74.7689 16.2003 74.7935 16.3221 74.8428 16.566L76.1714 23.1337C76.3382 23.9583 76.4216 24.3705 76.3037 24.6068C76.2012 24.8123 76.0132 24.9555 75.7953 24.9942C75.5446 25.0386 75.1964 24.8281 74.5 24.407L68.9537 21.0525C68.7479 20.928 68.645 20.8659 68.5356 20.8414C68.4387 20.8199 68.3386 20.8199 68.2418 20.8414C68.1324 20.8659 68.0295 20.928 67.8237 21.0525L62.2774 24.407C61.581 24.8281 61.2329 25.0386 60.9821 24.9942C60.7642 24.9555 60.5762 24.8123 60.4738 24.6068C60.3559 24.3705 60.4393 23.9583 60.6061 23.1337L61.9345 16.566C61.9838 16.3221 62.0085 16.2003 61.9968 16.0836C61.9864 15.9805 61.9555 15.8807 61.906 15.7907C61.8501 15.6892 61.7619 15.6057 61.5853 15.439L56.8291 10.9443C56.2319 10.38 55.9334 10.0979 55.8962 9.83401C55.864 9.60479 55.9358 9.37295 56.0904 9.20739C56.2683 9.01678 56.668 8.97255 57.4674 8.88408L63.8348 8.17937C64.0711 8.15322 64.1893 8.14015 64.2914 8.09242C64.3818 8.0502 64.4628 7.98852 64.529 7.91141C64.6039 7.82427 64.6523 7.71047 64.749 7.48288L67.3558 1.35062Z" fill="black"/>
<path d="M95.3001 1.35062C95.6273 0.580729 95.791 0.195785 96.0189 0.0772437C96.2168 -0.0257479 96.4492 -0.0257479 96.6471 0.0772437C96.875 0.195785 97.0387 0.580729 97.366 1.35062L99.9727 7.48288C100.069 7.71047 100.118 7.82427 100.193 7.91141C100.259 7.98852 100.34 8.0502 100.43 8.09242C100.532 8.14015 100.651 8.15322 100.887 8.17937L107.254 8.88408C108.054 8.97255 108.453 9.01678 108.631 9.20739C108.786 9.37295 108.858 9.60479 108.825 9.83401C108.788 10.0979 108.49 10.38 107.893 10.9443L103.136 15.439C102.96 15.6057 102.872 15.6892 102.816 15.7907C102.766 15.8807 102.735 15.9805 102.725 16.0836C102.713 16.2003 102.738 16.3221 102.787 16.566L104.116 23.1337C104.282 23.9583 104.366 24.3705 104.248 24.6068C104.146 24.8123 103.958 24.9555 103.74 24.9942C103.489 25.0386 103.141 24.8281 102.444 24.407L96.898 21.0525C96.6922 20.928 96.5893 20.8659 96.4799 20.8414C96.3831 20.8199 96.283 20.8199 96.1861 20.8414C96.0767 20.8659 95.9738 20.928 95.768 21.0525L90.2217 24.407C89.5254 24.8281 89.1772 25.0386 88.9264 24.9942C88.7086 24.9555 88.5205 24.8123 88.4181 24.6068C88.3002 24.3705 88.3836 23.9583 88.5504 23.1337L89.8789 16.566C89.9282 16.3221 89.9528 16.2003 89.9411 16.0836C89.9308 15.9805 89.8998 15.8807 89.8504 15.7907C89.7945 15.6892 89.7062 15.6057 89.5297 15.439L84.7734 10.9443C84.1763 10.38 83.8777 10.0979 83.8406 9.83401C83.8083 9.60479 83.8802 9.37295 84.0347 9.20739C84.2127 9.01678 84.6124 8.97255 85.4118 8.88408L91.7791 8.17937C92.0155 8.15322 92.1336 8.14015 92.2358 8.09242C92.3262 8.0502 92.4071 7.98852 92.4734 7.91141C92.5482 7.82427 92.5966 7.71047 92.6934 7.48288L95.3001 1.35062Z" fill="black"/>
<path d="M123.244 1.35062C123.572 0.580729 123.735 0.195785 123.963 0.0772437C124.161 -0.0257479 124.394 -0.0257479 124.591 0.0772437C124.819 0.195785 124.983 0.580729 125.31 1.35062L127.917 7.48287C128.014 7.71047 128.062 7.82427 128.137 7.91141C128.203 7.98852 128.284 8.0502 128.375 8.09242C128.477 8.14015 128.595 8.15322 128.831 8.17937L135.199 8.88408C135.998 8.97255 136.398 9.01678 136.576 9.20739C136.73 9.37295 136.802 9.60479 136.77 9.83401C136.733 10.0979 136.434 10.38 135.837 10.9443L131.081 15.439C130.904 15.6057 130.816 15.6892 130.76 15.7907C130.711 15.8807 130.68 15.9805 130.669 16.0836C130.658 16.2003 130.682 16.3221 130.732 16.566L132.06 23.1337C132.227 23.9583 132.31 24.3705 132.192 24.6068C132.09 24.8123 131.902 24.9555 131.684 24.9942C131.433 25.0386 131.085 24.8281 130.389 24.407L124.842 21.0525C124.637 20.928 124.534 20.8659 124.424 20.8414C124.327 20.8199 124.227 20.8199 124.13 20.8414C124.021 20.8659 123.918 20.928 123.712 21.0525L118.166 24.407C117.47 24.8281 117.122 25.0386 116.871 24.9942C116.653 24.9555 116.465 24.8123 116.362 24.6068C116.245 24.3705 116.328 23.9583 116.495 23.1337L117.823 16.566C117.873 16.3221 117.897 16.2003 117.885 16.0836C117.875 15.9805 117.844 15.8807 117.795 15.7907C117.739 15.6892 117.651 15.6057 117.474 15.439L112.718 10.9443C112.121 10.38 111.822 10.0979 111.785 9.83401C111.753 9.60479 111.825 9.37295 111.979 9.20739C112.157 9.01678 112.557 8.97255 113.356 8.88408L119.723 8.17937C119.96 8.15322 120.078 8.14015 120.18 8.09242C120.271 8.0502 120.351 7.98852 120.418 7.91141C120.493 7.82427 120.541 7.71047 120.638 7.48287L123.244 1.35062Z" fill="black"/>
</svg>
