<svg width="800" height="800" viewBox="0 0 800 800" fill="none" xmlns="http://www.w3.org/2000/svg">
<path d="M800 400C800 620.914 620.914 800 400 800C179.086 800 0 620.914 0 400C0 179.086 179.086 0 400 0C620.914 0 800 179.086 800 400Z" fill="#393E46"/>
<path d="M400 650C538.07 650 650 538.07 650 400C650 388.432 632.662 386.52 626.68 396.42C598.222 443.515 546.537 475 487.5 475C397.753 475 325 402.247 325 312.5C325 253.461 356.485 201.776 403.58 173.319C413.48 167.337 411.568 150 400 150C261.929 150 150 261.929 150 400C150 538.07 261.929 650 400 650Z" fill="#4277FF"/>
</svg>
