<svg width="88" height="88" viewBox="0 0 88 88" fill="none" xmlns="http://www.w3.org/2000/svg">
<g filter="url(#filter0_d_242_103)">
<rect x="4" y="2" width="80" height="80" rx="40" fill="white" shape-rendering="crispEdges"/>
<path d="M63.611 38.083H62V38H44V46H55.303C53.654 50.657 49.223 54 44 54C37.373 54 32 48.627 32 42C32 35.373 37.373 30 44 30C47.059 30 49.842 31.154 51.961 33.039L57.618 27.382C54.046 24.053 49.268 22 44 22C32.955 22 24 30.955 24 42C24 53.045 32.955 62 44 62C55.045 62 64 53.045 64 42C64 40.659 63.862 39.35 63.611 38.083Z" fill="#FFC107"/>
<path d="M26.306 32.691L32.877 37.51C34.655 33.108 38.961 30 44 30C47.059 30 49.842 31.154 51.961 33.039L57.618 27.382C54.046 24.053 49.268 22 44 22C36.318 22 29.656 26.337 26.306 32.691Z" fill="#FF3D00"/>
<path d="M44 62C49.166 62 53.86 60.023 57.409 56.808L51.219 51.57C49.211 53.091 46.715 54 44 54C38.798 54 34.381 50.683 32.717 46.054L26.195 51.079C29.505 57.556 36.227 62 44 62Z" fill="#4CAF50"/>
<path d="M63.611 38.083H62V38H44V46H55.303C54.511 48.237 53.072 50.166 51.216 51.571L51.219 51.569L57.409 56.807C56.971 57.205 64 52 64 42C64 40.659 63.862 39.35 63.611 38.083Z" fill="#1976D2"/>
</g>
<defs>
<filter id="filter0_d_242_103" x="0" y="0" width="88" height="88" filterUnits="userSpaceOnUse" color-interpolation-filters="sRGB">
<feFlood flood-opacity="0" result="BackgroundImageFix"/>
<feColorMatrix in="SourceAlpha" type="matrix" values="0 0 0 0 0 0 0 0 0 0 0 0 0 0 0 0 0 0 127 0" result="hardAlpha"/>
<feOffset dy="2"/>
<feGaussianBlur stdDeviation="2"/>
<feComposite in2="hardAlpha" operator="out"/>
<feColorMatrix type="matrix" values="0 0 0 0 0 0 0 0 0 0 0 0 0 0 0 0 0 0 0.1 0"/>
<feBlend mode="normal" in2="BackgroundImageFix" result="effect1_dropShadow_242_103"/>
<feBlend mode="normal" in="SourceGraphic" in2="effect1_dropShadow_242_103" result="shape"/>
</filter>
</defs>
</svg>
