<svg width="800" height="800" viewBox="0 0 800 800" fill="none" xmlns="http://www.w3.org/2000/svg">
<path d="M800 400C800 620.914 620.914 800 400 800C179.086 800 0 620.914 0 400C0 179.086 179.086 0 400 0C620.914 0 800 179.086 800 400Z" fill="#4277FF"/>
<path d="M539.581 399.697C539.581 476.76 477.109 539.232 400.046 539.232C322.983 539.232 260.512 476.76 260.512 399.697C260.512 322.634 322.983 260.162 400.046 260.162C477.109 260.162 539.581 322.634 539.581 399.697Z" fill="white"/>
<path fill-rule="evenodd" clip-rule="evenodd" d="M400.046 149.697C409.679 149.697 417.488 157.506 417.488 167.139V190.394C417.488 200.027 409.679 207.836 400.046 207.836C390.414 207.836 382.605 200.027 382.605 190.394V167.139C382.605 157.506 390.414 149.697 400.046 149.697ZM223.27 222.92C230.081 216.109 241.125 216.109 247.936 222.92L257.072 232.056C263.884 238.867 263.884 249.911 257.072 256.723C250.261 263.534 239.217 263.534 232.406 256.723L223.27 247.587C216.458 240.775 216.458 229.732 223.27 222.92ZM576.816 222.926C583.628 229.738 583.628 240.781 576.816 247.593L567.681 256.729C560.87 263.54 549.825 263.54 543.014 256.729C536.202 249.917 536.202 238.874 543.014 232.062L552.151 222.926C558.963 216.115 570.005 216.115 576.816 222.926ZM150.046 399.697C150.046 390.064 157.855 382.255 167.488 382.255H190.744C200.377 382.255 208.186 390.064 208.186 399.697C208.186 409.329 200.377 417.139 190.744 417.139H167.488C157.855 417.139 150.046 409.329 150.046 399.697ZM591.907 399.697C591.907 390.064 599.716 382.255 609.349 382.255H632.604C642.237 382.255 650.046 390.064 650.046 399.697C650.046 409.329 642.237 417.139 632.604 417.139H609.349C599.716 417.139 591.907 409.329 591.907 399.697ZM543.014 542.664C549.825 535.853 560.87 535.853 567.681 542.664L576.816 551.801C583.628 558.613 583.628 569.655 576.816 576.467C570.005 583.278 558.963 583.278 552.151 576.467L543.014 567.332C536.202 560.52 536.202 549.476 543.014 542.664ZM257.072 542.671C263.884 549.483 263.884 560.527 257.072 567.339L247.936 576.474C241.125 583.285 230.081 583.285 223.27 576.474C216.458 569.662 216.458 558.618 223.27 551.806L232.406 542.671C239.217 535.86 250.261 535.86 257.072 542.671ZM400.046 591.557C409.679 591.557 417.488 599.367 417.488 608.999V632.255C417.488 641.887 409.679 649.697 400.046 649.697C390.414 649.697 382.605 641.887 382.605 632.255V608.999C382.605 599.367 390.414 591.557 400.046 591.557Z" fill="white"/>
</svg>
