<svg width="29" height="34" viewBox="0 0 29 34" fill="none" xmlns="http://www.w3.org/2000/svg">
<path fill-rule="evenodd" clip-rule="evenodd" d="M0.960938 13.9902C0.960938 6.36836 7.17641 0.107666 14.9465 0.107666C22.7167 0.107666 28.9321 6.36836 28.9321 13.9902C28.9321 17.8781 27.1593 21.2816 24.7591 24.386C22.7558 26.9771 20.1915 29.5092 17.6406 32.0281C17.1586 32.504 16.6771 32.9794 16.2 33.4547C15.8708 33.7825 15.4187 33.9675 14.9465 33.9675C14.4743 33.9675 14.0222 33.7825 13.6931 33.4547C13.2159 32.9794 12.7345 32.504 12.2525 32.0281C9.70158 29.5092 7.13723 26.9771 5.13391 24.386C2.73372 21.2816 0.960938 17.8781 0.960938 13.9902ZM14.9465 3.49365C9.1996 3.49365 4.45733 8.14784 4.45733 13.9902C4.45733 16.8343 5.7439 19.5256 7.93272 22.3566C9.78347 24.7504 12.1521 27.0908 14.7061 29.6142C14.786 29.6933 14.8662 29.7725 14.9465 29.8518C15.0268 29.7725 15.107 29.6933 15.187 29.6142C17.7409 27.0908 20.1096 24.7504 21.9603 22.3566C24.1491 19.5256 25.4357 16.8343 25.4357 13.9902C25.4357 8.14784 20.6935 3.49365 14.9465 3.49365ZM9.70193 13.6516C9.70193 10.8466 12.0499 8.57262 14.9465 8.57262C17.8431 8.57262 20.1911 10.8466 20.1911 13.6516C20.1911 16.4567 17.8431 18.7306 14.9465 18.7306C12.05 18.7306 9.70193 16.4567 9.70193 13.6516ZM14.9465 11.9586C13.981 11.9586 13.1983 12.7166 13.1983 13.6516C13.1983 14.5867 13.981 15.3446 14.9465 15.3446C15.9121 15.3446 16.6947 14.5867 16.6947 13.6516C16.6947 12.7166 15.9121 11.9586 14.9465 11.9586Z" fill="black" fill-opacity="0.6"/>
</svg>
