<svg width="25" height="26" viewBox="0 0 25 26" fill="none" xmlns="http://www.w3.org/2000/svg">
<path fill-rule="evenodd" clip-rule="evenodd" d="M3.38073 3.10046C3.0879 3.10046 2.80706 3.21679 2.6 3.42385C2.39294 3.63092 2.27661 3.91175 2.27661 4.20459C2.27661 4.49742 2.39294 4.77826 2.6 4.98532C2.80716 5.19249 3.08777 5.30871 3.38046 5.30871C3.67344 5.30871 3.95451 5.19228 4.16147 4.98532C4.36853 4.77826 4.48486 4.49742 4.48486 4.20459C4.48486 3.91175 4.36853 3.63092 4.16147 3.42385C3.95441 3.21679 3.67357 3.10046 3.38073 3.10046ZM1.03853 1.86238C1.65972 1.24119 2.50224 0.892212 3.38073 0.892212C4.25923 0.892212 5.10175 1.24119 5.72294 1.86238C6.34413 2.48357 6.69311 3.32609 6.69311 4.20459C6.69311 5.08308 6.34413 5.9256 5.72294 6.54679C5.37021 6.89951 4.94608 7.16444 4.48459 7.32756V11.9335H11.1093V7.32749C10.648 7.16432 10.2241 6.89939 9.87153 6.54679C9.25034 5.9256 8.90136 5.08308 8.90136 4.20459C8.90136 3.32609 9.25034 2.48357 9.87153 1.86238C10.4927 1.24119 11.3352 0.892212 12.2137 0.892212C13.0922 0.892212 13.9347 1.24119 14.5559 1.86238C15.1771 2.48357 15.5261 3.32609 15.5261 4.20459C15.5261 5.08308 15.1771 5.9256 14.5559 6.54679C14.2032 6.89951 13.7791 7.16444 13.3176 7.32756V11.9335H19.9423V7.32749C19.481 7.16432 19.0571 6.89939 18.7045 6.54679C18.0833 5.9256 17.7344 5.08308 17.7344 4.20459C17.7344 3.32609 18.0833 2.48357 18.7045 1.86238C19.3257 1.24119 20.1682 0.892212 21.0467 0.892212C21.9252 0.892212 22.7677 1.24119 23.3889 1.86238C24.0101 2.48357 24.3591 3.32609 24.3591 4.20459C24.3591 5.08308 24.0101 5.9256 23.3889 6.54679C23.0362 6.89951 22.6121 7.16444 22.1506 7.32756V13.0376C22.1506 13.6474 21.6563 14.1417 21.0465 14.1417H13.3176V18.7476C13.7791 18.9107 14.2032 19.1757 14.5559 19.5284C15.1771 20.1496 15.5261 20.9921 15.5261 21.8706C15.5261 22.7491 15.1771 23.5916 14.5559 24.2128C13.9347 24.834 13.0922 25.183 12.2137 25.183C11.3352 25.183 10.4927 24.834 9.87153 24.2128C9.25034 23.5916 8.90136 22.7491 8.90136 21.8706C8.90136 20.9921 9.25034 20.1496 9.87153 19.5284C10.2241 19.1758 10.648 18.9108 11.1093 18.7477V14.1417H4.48459V18.7476C4.94608 18.9107 5.37021 19.1757 5.72294 19.5284C6.34413 20.1496 6.69311 20.9921 6.69311 21.8706C6.69311 22.7491 6.34413 23.5916 5.72294 24.2128C5.10175 24.834 4.25923 25.183 3.38073 25.183C2.50224 25.183 1.65972 24.834 1.03853 24.2128C0.417341 23.5916 0.0683594 22.7491 0.0683594 21.8706C0.0683594 20.9921 0.417341 20.1496 1.03853 19.5284C1.39113 19.1758 1.815 18.9108 2.27634 18.7477V7.32749C1.815 7.16432 1.39113 6.89939 1.03853 6.54679C0.41734 5.9256 0.0683594 5.08308 0.0683594 4.20459C0.0683594 3.32609 0.417341 2.48357 1.03853 1.86238ZM12.2137 3.10046C11.9209 3.10046 11.6401 3.21679 11.433 3.42385C11.2259 3.63092 11.1096 3.91176 11.1096 4.20459C11.1096 4.49742 11.2259 4.77826 11.433 4.98532C11.6402 5.19249 11.9208 5.30871 12.2135 5.30871C12.5064 5.30871 12.7875 5.19228 12.9945 4.98532C13.2015 4.77826 13.3179 4.49742 13.3179 4.20459C13.3179 3.91176 13.2015 3.63092 12.9945 3.42385C12.7874 3.21679 12.5066 3.10046 12.2137 3.10046ZM21.0467 3.10046C20.7539 3.10046 20.4731 3.21679 20.266 3.42385C20.0589 3.63092 19.9426 3.91176 19.9426 4.20459C19.9426 4.49742 20.0589 4.77826 20.266 4.98532C20.4732 5.19249 20.7538 5.30871 21.0465 5.30871C21.3394 5.30871 21.6205 5.19228 21.8275 4.98532C22.0345 4.77826 22.1509 4.49742 22.1509 4.20459C22.1509 3.91176 22.0345 3.63092 21.8275 3.42385C21.6204 3.21679 21.3396 3.10046 21.0467 3.10046ZM3.38046 20.7665C3.08778 20.7665 2.80717 20.8827 2.6 21.0899C2.39294 21.2969 2.27661 21.5778 2.27661 21.8706C2.27661 22.1634 2.39294 22.4443 2.6 22.6513C2.80706 22.8584 3.0879 22.9747 3.38073 22.9747C3.67356 22.9747 3.9544 22.8584 4.16147 22.6513C4.36853 22.4443 4.48486 22.1634 4.48486 21.8706C4.48486 21.5778 4.36853 21.2969 4.16147 21.0899C3.95451 20.8829 3.67344 20.7665 3.38046 20.7665ZM12.2135 20.7665C11.9208 20.7665 11.6402 20.8827 11.433 21.0899C11.2259 21.2969 11.1096 21.5778 11.1096 21.8706C11.1096 22.1634 11.2259 22.4443 11.433 22.6513C11.6401 22.8584 11.9209 22.9747 12.2137 22.9747C12.5066 22.9747 12.7874 22.8584 12.9945 22.6513C13.2015 22.4443 13.3179 22.1634 13.3179 21.8706C13.3179 21.5778 13.2015 21.2969 12.9945 21.0899C12.7875 20.8829 12.5064 20.7665 12.2135 20.7665ZM18.7045 19.5284C19.3257 18.9072 20.1682 18.5582 21.0467 18.5582C21.9252 18.5582 22.7677 18.9072 23.3889 19.5284C24.0101 20.1496 24.3591 20.9921 24.3591 21.8706C24.3591 22.7491 24.0101 23.5916 23.3889 24.2128C22.7677 24.834 21.9252 25.183 21.0467 25.183C20.1682 25.183 19.3257 24.834 18.7045 24.2128C18.0833 23.5916 17.7344 22.7491 17.7344 21.8706C17.7344 20.9921 18.0833 20.1496 18.7045 19.5284ZM21.0467 20.7665C20.7539 20.7665 20.4731 20.8828 20.266 21.0899C20.0589 21.2969 19.9426 21.5778 19.9426 21.8706C19.9426 22.1634 20.0589 22.4443 20.266 22.6513C20.4731 22.8584 20.7539 22.9747 21.0467 22.9747C21.3396 22.9747 21.6204 22.8584 21.8275 22.6513C22.0345 22.4443 22.1509 22.1634 22.1509 21.8706C22.1509 21.5778 22.0345 21.2969 21.8275 21.0899C21.6204 20.8828 21.3396 20.7665 21.0467 20.7665Z" fill="black" fill-opacity="0.6"/>
</svg>
