<svg width="51" height="50" viewBox="0 0 51 50" fill="none" xmlns="http://www.w3.org/2000/svg">
<path d="M47.0258 5.55746C45.6574 3.81412 43.9388 2.41206 41.9938 1.45226C40.0488 0.49247 37.9258 -0.0011581 35.7778 0.00693914C32.1026 -0.110232 28.5245 1.26019 25.7797 3.83624C23.0348 1.26019 19.4567 -0.110232 15.7815 0.00693914C13.6335 -0.0011581 11.5105 0.49247 9.56555 1.45226C7.62056 2.41206 5.90195 3.81412 4.53354 5.55746C2.15148 8.59984 -0.340568 14.1082 1.31163 23.0854C3.94865 37.4209 23.7225 49.1852 24.5574 49.6668C24.9295 49.8853 25.3486 50 25.7747 50C26.2008 50 26.6198 49.8853 26.9919 49.6668C27.8318 49.1747 47.6057 37.4104 50.2377 23.0854C51.8999 14.1082 49.4079 8.59984 47.0258 5.55746ZM45.3411 22.0853C43.4764 32.2205 29.9239 41.6477 25.7797 44.3268C19.9407 40.616 7.92792 31.2993 6.23073 22.0853C4.94847 15.1215 6.70315 11.0764 8.40284 8.90777C9.30169 7.76585 10.4294 6.84753 11.7051 6.21869C12.9808 5.58985 14.3729 5.26608 15.7815 5.27059C17.2859 5.15178 18.794 5.44548 20.1585 6.12305C21.5231 6.80061 22.6976 7.83892 23.5676 9.13673C23.7821 9.55239 24.0986 9.89986 24.484 10.1429C24.8695 10.386 25.3098 10.5158 25.7591 10.5187C26.2083 10.5217 26.6501 10.3977 27.0384 10.1597C27.4267 9.92176 27.7473 9.57848 27.9668 9.16568C28.8351 7.85776 30.0121 6.81067 31.3818 6.12764C32.7515 5.44461 34.2667 5.14922 35.7778 5.27059C37.1894 5.26335 38.5849 5.58582 39.8638 6.21475C41.1427 6.84369 42.2733 7.76344 43.174 8.90777C44.8687 11.0764 46.6234 15.1215 45.3411 22.0853Z" fill="black"/>
</svg>
