<svg width="46" height="46" viewBox="0 0 46 46" fill="none" xmlns="http://www.w3.org/2000/svg">
<path d="M39.6673 10.5V23H6.33398M23.0007 10.5V35.5M6.33398 10.5V35.5" stroke="#4277FF" stroke-width="4" stroke-linecap="round" stroke-linejoin="round"/>
<path d="M43.8337 6.33335C43.8337 7.43842 43.3947 8.49823 42.6133 9.27963C41.8319 10.061 40.7721 10.5 39.667 10.5C38.5619 10.5 37.5021 10.061 36.7207 9.27963C35.9393 8.49823 35.5003 7.43842 35.5003 6.33335C35.5003 5.22829 35.9393 4.16848 36.7207 3.38708C37.5021 2.60567 38.5619 2.16669 39.667 2.16669C40.7721 2.16669 41.8319 2.60567 42.6133 3.38708C43.3947 4.16848 43.8337 5.22829 43.8337 6.33335ZM27.167 6.33335C27.167 7.43842 26.728 8.49823 25.9466 9.27963C25.1652 10.061 24.1054 10.5 23.0003 10.5C21.8953 10.5 20.8355 10.061 20.054 9.27963C19.2726 8.49823 18.8337 7.43842 18.8337 6.33335C18.8337 5.22829 19.2726 4.16848 20.054 3.38708C20.8355 2.60567 21.8953 2.16669 23.0003 2.16669C24.1054 2.16669 25.1652 2.60567 25.9466 3.38708C26.728 4.16848 27.167 5.22829 27.167 6.33335ZM10.5003 6.33335C10.5003 7.43842 10.0613 8.49823 9.27994 9.27963C8.49854 10.061 7.43873 10.5 6.33366 10.5C5.22859 10.5 4.16878 10.061 3.38738 9.27963C2.60598 8.49823 2.16699 7.43842 2.16699 6.33335C2.16699 5.22829 2.60598 4.16848 3.38738 3.38708C4.16878 2.60567 5.22859 2.16669 6.33366 2.16669C7.43873 2.16669 8.49854 2.60567 9.27994 3.38708C10.0613 4.16848 10.5003 5.22829 10.5003 6.33335ZM27.167 39.6667C27.167 40.7718 26.728 41.8316 25.9466 42.613C25.1652 43.3944 24.1054 43.8334 23.0003 43.8334C21.8953 43.8334 20.8355 43.3944 20.054 42.613C19.2726 41.8316 18.8337 40.7718 18.8337 39.6667C18.8337 38.5616 19.2726 37.5018 20.054 36.7204C20.8355 35.939 21.8953 35.5 23.0003 35.5C24.1054 35.5 25.1652 35.939 25.9466 36.7204C26.728 37.5018 27.167 38.5616 27.167 39.6667ZM10.5003 39.6667C10.5003 40.7718 10.0613 41.8316 9.27994 42.613C8.49854 43.3944 7.43873 43.8334 6.33366 43.8334C5.22859 43.8334 4.16878 43.3944 3.38738 42.613C2.60598 41.8316 2.16699 40.7718 2.16699 39.6667C2.16699 38.5616 2.60598 37.5018 3.38738 36.7204C4.16878 35.939 5.22859 35.5 6.33366 35.5C7.43873 35.5 8.49854 35.939 9.27994 36.7204C10.0613 37.5018 10.5003 38.5616 10.5003 39.6667ZM39.667 43.8334C40.7721 43.8334 41.8319 43.3944 42.6133 42.613C43.3947 41.8316 43.8337 40.7718 43.8337 39.6667C43.8337 38.5616 43.3947 37.5018 42.6133 36.7204C41.8319 35.939 40.7721 35.5 39.667 35.5C38.5619 35.5 37.5021 35.939 36.7207 36.7204C35.9393 37.5018 35.5003 38.5616 35.5003 39.6667C35.5003 40.7718 35.9393 41.8316 36.7207 42.613C37.5021 43.3944 38.5619 43.8334 39.667 43.8334Z" stroke="#4277FF" stroke-width="4" stroke-linecap="round" stroke-linejoin="round"/>
</svg>
