<svg width="1920" height="150" viewBox="0 0 1920 150" fill="none" xmlns="http://www.w3.org/2000/svg">
<g clip-path="url(#clip0_226_222)">
<rect width="1920" height="150" fill="url(#paint0_linear_226_222)"/>
<path fill-rule="evenodd" clip-rule="evenodd" d="M843.119 176.87C804.392 176.87 773 145.34 773 106.437C773 67.5339 804.392 36 843.119 36C881.842 36 913.233 67.5343 913.233 106.437C913.233 145.34 881.842 176.87 843.119 176.87ZM843.119 113.246C846.865 113.246 849.897 110.2 849.897 106.437C849.897 102.674 846.865 99.6238 843.119 99.6238C839.37 99.6238 836.336 102.674 836.336 106.437C836.336 110.2 839.37 113.246 843.119 113.246ZM800.675 83.4985C799.384 83.0786 798.358 82.0923 797.882 80.8171C797.417 79.5387 797.548 78.1212 798.242 76.963C798.242 76.963 798.103 77.1121 798.153 76.9901C798.177 76.931 798.246 76.8086 798.396 76.5751C798.542 76.3502 798.763 76.0225 799.093 75.5494C805.802 65.9126 815.574 58.5876 826.979 54.9749C827.945 54.6702 828.473 54.5287 828.758 54.469C828.831 54.4536 828.888 54.4436 828.933 54.4376C828.992 54.4298 829.029 54.4291 829.051 54.4321C829.076 54.4354 829.083 54.4434 829.082 54.4517C829.081 54.4642 829.062 54.4777 829.062 54.4777C830.379 54.1708 831.769 54.4777 832.83 55.3289C833.896 56.1688 834.518 57.4585 834.518 58.8174V84.3273C834.518 86.7021 833.38 88.9342 831.47 90.337C829.557 91.7325 827.092 92.1198 824.841 91.3928L800.675 83.4985ZM824.274 112.592C823.543 110.327 821.779 108.552 819.528 107.825L795.373 99.9414C794.085 99.5215 792.678 99.7188 791.551 100.467C790.423 101.223 789.7 102.454 789.583 103.813C789.583 103.813 789.438 103.382 789.413 105.954C789.303 117.966 793.224 129.558 800.272 138.954C801.719 140.883 801.341 140.199 801.341 140.199C802.232 141.226 803.534 141.789 804.879 141.733C806.235 141.678 807.49 141.006 808.283 139.903L823.222 119.244C824.612 117.327 825.001 114.846 824.274 112.592ZM843.119 126.343C845.482 126.343 847.705 127.483 849.101 129.401L864.033 150.056C864.826 151.156 865.084 152.558 864.72 153.874C864.36 155.182 863.422 156.255 862.171 156.781C862.171 156.781 862.931 156.632 860.659 157.417C849.592 161.249 837.406 161.417 826.066 157.6C823.634 156.782 824.092 156.771 824.092 156.771C822.837 156.241 821.895 155.174 821.535 153.862C821.164 152.547 821.419 151.137 822.212 150.038L837.144 129.401C838.529 127.483 840.751 126.343 843.119 126.343ZM890.879 99.9341L866.71 107.825C864.462 108.552 862.691 110.327 861.967 112.592C861.233 114.846 861.622 117.327 863.019 119.241L877.94 139.882C878.74 140.988 879.995 141.65 881.351 141.716C882.704 141.774 884.005 141.2 884.889 140.17C884.889 140.17 884.759 140.605 886.282 138.541C893.399 128.886 897.017 117.184 896.81 105.432C896.77 103.021 896.668 103.795 896.668 103.795C896.552 102.436 895.832 101.205 894.701 100.456C893.573 99.7114 892.17 99.5103 890.879 99.9341ZM861.393 91.3932C859.142 92.1201 856.684 91.7295 854.767 90.3374C852.854 88.9346 851.716 86.7021 851.716 84.3251V58.7927C851.716 57.4374 852.334 56.1476 853.4 55.3112C854.455 54.4634 855.84 54.1495 857.16 54.4564C857.16 54.4564 856.458 54.1276 858.76 54.829C869.954 58.2666 879.911 65.3317 886.85 75.1187C888.337 77.2083 887.963 76.9528 887.963 76.9528C888.668 78.1177 888.807 79.5391 888.334 80.8176C887.857 82.0923 886.832 83.082 885.54 83.499L861.393 91.3932Z" fill="url(#paint1_linear_226_222)"/>
<path fill-rule="evenodd" clip-rule="evenodd" d="M1331.5 145C1282.07 145 1242 104.711 1242 55.0022C1242 5.29321 1282.07 -35 1331.5 -35C1380.93 -35 1421 5.29367 1421 55.0028C1421 104.712 1380.93 145 1331.5 145ZM1331.5 63.7033C1336.28 63.7033 1340.16 59.8105 1340.16 55.0022C1340.16 50.1938 1336.28 46.2967 1331.5 46.2967C1326.72 46.2967 1322.85 50.1938 1322.85 55.0022C1322.84 59.8105 1326.72 63.7033 1331.5 63.7033ZM1277.33 25.6923C1275.68 25.1558 1274.37 23.8955 1273.76 22.2661C1273.17 20.6326 1273.33 18.8213 1274.22 17.3414C1274.22 17.3414 1274.04 17.5319 1274.11 17.376C1274.14 17.3006 1274.22 17.1441 1274.42 16.8457C1274.6 16.5584 1274.88 16.1396 1275.31 15.5352C1283.87 3.2215 1296.34 -6.13812 1310.9 -10.7544C1312.13 -11.1438 1312.81 -11.3245 1313.17 -11.4008C1313.27 -11.4205 1313.34 -11.4333 1313.39 -11.4409C1313.47 -11.4509 1313.52 -11.4518 1313.55 -11.4479C1313.58 -11.4437 1313.59 -11.4336 1313.58 -11.423C1313.58 -11.4069 1313.56 -11.3897 1313.56 -11.3897C1315.24 -11.7819 1317.01 -11.3897 1318.37 -10.3021C1319.73 -9.22883 1320.52 -7.58092 1320.52 -5.84457V26.7513C1320.52 29.7858 1319.07 32.6379 1316.63 34.4304C1314.19 36.2135 1311.05 36.7083 1308.17 35.7794L1277.33 25.6923ZM1307.45 62.8677C1306.52 59.9732 1304.26 57.7048 1301.39 56.776L1270.56 46.7026C1268.91 46.166 1267.12 46.4181 1265.68 47.3744C1264.24 48.3407 1263.32 49.9137 1263.17 51.6499C1263.17 51.6499 1262.98 51.0995 1262.95 54.3856C1262.81 69.7338 1267.81 84.5454 1276.81 96.5513C1278.66 99.0161 1278.18 98.1429 1278.18 98.1429C1279.31 99.4545 1280.97 100.174 1282.69 100.103C1284.42 100.033 1286.02 99.1744 1287.04 97.7647L1306.11 71.3674C1307.88 68.9175 1308.38 65.7478 1307.45 62.8677ZM1331.5 80.438C1334.52 80.438 1337.36 81.8947 1339.14 84.3451L1358.2 110.737C1359.21 112.143 1359.54 113.935 1359.08 115.616C1358.62 117.287 1357.42 118.659 1355.82 119.331C1355.82 119.331 1356.79 119.14 1353.89 120.143C1339.77 125.04 1324.21 125.255 1309.74 120.377C1306.63 119.331 1307.22 119.318 1307.22 119.318C1305.61 118.64 1304.41 117.277 1303.95 115.601C1303.48 113.921 1303.8 112.119 1304.82 110.714L1323.88 84.3451C1325.64 81.8947 1328.48 80.438 1331.5 80.438ZM1392.47 46.6932L1361.62 56.776C1358.75 57.7048 1356.49 59.9732 1355.56 62.8677C1354.62 65.7478 1355.12 68.917 1356.9 71.363L1375.95 97.7371C1376.97 99.1512 1378.57 99.9963 1380.3 100.081C1382.03 100.155 1383.69 99.422 1384.82 98.1061C1384.82 98.1061 1384.65 98.6614 1386.6 96.024C1395.68 83.6872 1400.3 68.735 1400.04 53.7182C1399.98 50.6373 1399.86 51.6268 1399.86 51.6268C1399.71 49.8906 1398.79 48.3176 1397.34 47.3607C1395.9 46.4087 1394.11 46.1517 1392.47 46.6932ZM1354.83 35.7799C1351.95 36.7088 1348.82 36.2096 1346.37 34.4309C1343.93 32.6384 1342.48 29.7858 1342.48 26.7485V-5.87608C1342.48 -7.6079 1343.27 -9.25597 1344.63 -10.3247C1345.97 -11.408 1347.74 -11.809 1349.43 -11.4169C1349.43 -11.4169 1348.53 -11.8371 1351.47 -10.9408C1365.76 -6.54834 1378.47 2.4792 1387.32 14.9847C1389.22 17.6548 1388.74 17.3283 1388.74 17.3283C1389.64 18.8168 1389.82 20.633 1389.22 22.2667C1388.61 23.8955 1387.3 25.1601 1385.65 25.693L1354.83 35.7799Z" fill="url(#paint2_linear_226_222)"/>
<path fill-rule="evenodd" clip-rule="evenodd" d="M1778.5 145C1706.43 145 1648 86.3576 1648 14.0032C1648 -58.351 1706.43 -117 1778.5 -117C1850.57 -117 1909 -58.3503 1909 14.0041C1909 86.3583 1850.57 145 1778.5 145ZM1778.5 26.6681C1785.48 26.6681 1791.12 21.002 1791.12 14.0032C1791.12 7.00437 1785.48 1.33191 1778.5 1.33191C1771.53 1.33191 1765.88 7.00437 1765.88 14.0032C1765.88 21.002 1771.53 26.6681 1778.5 26.6681ZM1699.51 -28.6589C1697.11 -29.4399 1695.2 -31.2744 1694.31 -33.646C1693.44 -36.0237 1693.69 -38.66 1694.98 -40.8142C1694.98 -40.8142 1694.72 -40.5369 1694.81 -40.7637C1694.86 -40.8736 1694.99 -41.1013 1695.27 -41.5357C1695.54 -41.9539 1695.95 -42.5635 1696.56 -43.4432C1709.05 -61.3665 1727.24 -74.9899 1748.46 -81.7093C1750.26 -82.2759 1751.24 -82.5391 1751.78 -82.6501C1751.91 -82.6787 1752.02 -82.6973 1752.1 -82.7084C1752.21 -82.723 1752.28 -82.7243 1752.32 -82.7187C1752.37 -82.7125 1752.38 -82.6978 1752.38 -82.6823C1752.38 -82.6589 1752.34 -82.634 1752.34 -82.634C1754.79 -83.2047 1757.38 -82.634 1759.35 -81.0509C1761.34 -79.4886 1762.5 -77.09 1762.5 -74.5627V-27.1176C1762.5 -22.7006 1760.38 -18.5493 1756.82 -15.9402C1753.26 -13.3448 1748.67 -12.6246 1744.49 -13.9766L1699.51 -28.6589ZM1743.43 25.4519C1742.07 21.2388 1738.79 17.937 1734.6 16.585L1689.64 1.92265C1687.24 1.14165 1684.62 1.50854 1682.53 2.9005C1680.43 4.30698 1679.08 6.59662 1678.86 9.12375C1678.86 9.12375 1678.59 8.32254 1678.55 13.1057C1678.34 35.4459 1685.64 57.0049 1698.76 74.4803C1701.45 78.0679 1700.75 76.7969 1700.75 76.7969C1702.41 78.7061 1704.83 79.7529 1707.33 79.6501C1709.86 79.5481 1712.19 78.2983 1713.67 76.2464L1741.47 37.8237C1744.06 34.2576 1744.78 29.6441 1743.43 25.4519ZM1778.5 51.0264C1782.9 51.0264 1787.04 53.1467 1789.64 56.7134L1817.43 95.1288C1818.9 97.1744 1819.39 99.7835 1818.71 102.23C1818.04 104.662 1816.29 106.66 1813.96 107.637C1813.96 107.637 1815.38 107.359 1811.15 108.82C1790.55 115.947 1767.87 116.26 1746.77 109.16C1742.24 107.638 1743.09 107.618 1743.09 107.618C1740.76 106.632 1739 104.648 1738.33 102.209C1737.64 99.7626 1738.12 97.1399 1739.59 95.0952L1767.38 56.7134C1769.96 53.1467 1774.1 51.0264 1778.5 51.0264ZM1867.39 1.90903L1822.41 16.585C1818.23 17.937 1814.93 21.2388 1813.58 25.4519C1812.22 29.6441 1812.94 34.257 1815.54 37.8173L1843.31 76.2062C1844.8 78.2645 1847.14 79.4946 1849.66 79.6174C1852.18 79.7257 1854.6 78.6586 1856.25 76.7433C1856.25 76.7433 1856 77.5516 1858.84 73.7126C1872.09 55.7558 1878.82 33.992 1878.43 12.1342C1878.36 7.64983 1878.17 9.09014 1878.17 9.09014C1877.95 6.56302 1876.61 4.27338 1874.51 2.88052C1872.41 1.49492 1869.8 1.12077 1867.39 1.90903ZM1812.52 -13.9759C1808.33 -12.6239 1803.75 -13.3504 1800.18 -15.9395C1796.62 -18.5486 1794.5 -22.7006 1794.5 -27.1217V-74.6085C1794.5 -77.1293 1795.66 -79.5281 1797.64 -81.0838C1799.6 -82.6605 1802.18 -83.2442 1804.64 -82.6735C1804.64 -82.6735 1803.33 -83.2851 1807.62 -81.9806C1828.45 -75.587 1846.98 -62.4469 1859.89 -44.2444C1862.66 -40.358 1861.97 -40.8332 1861.97 -40.8332C1863.28 -38.6666 1863.54 -36.023 1862.66 -33.6451C1861.77 -31.2744 1859.86 -29.4336 1857.46 -28.658L1812.52 -13.9759Z" fill="url(#paint3_linear_226_222)"/>
<path fill-rule="evenodd" clip-rule="evenodd" d="M161.003 137C105.771 137 61 92.011 61 36.5024C61 -19.0059 105.771 -64 161.003 -64C216.229 -64 261 -19.0054 261 36.5031C261 92.0115 216.229 137 161.003 137ZM161.003 46.2187C166.345 46.2187 170.671 41.8717 170.671 36.5024C170.671 31.1331 166.345 26.7813 161.003 26.7813C155.656 26.7813 151.33 31.1331 151.33 36.5024C151.329 41.8717 155.656 46.2187 161.003 46.2187ZM100.47 3.77311C98.6291 3.17394 97.166 1.7666 96.487 -0.0528336C95.8234 -1.87697 96.01 -3.8995 97.0003 -5.55208C97.0003 -5.55208 96.8011 -5.33941 96.8728 -5.51341C96.9069 -5.59771 97.0051 -5.77241 97.2203 -6.10561C97.4271 -6.42644 97.7426 -6.8941 98.2134 -7.56903C107.782 -21.3193 121.719 -31.7709 137.984 -36.9258C139.362 -37.3605 140.115 -37.5624 140.521 -37.6476C140.626 -37.6695 140.707 -37.6838 140.771 -37.6923C140.856 -37.7035 140.908 -37.7045 140.94 -37.7002C140.975 -37.6955 140.985 -37.6842 140.983 -37.6723C140.982 -37.6544 140.956 -37.6352 140.956 -37.6352C142.834 -38.0731 144.815 -37.6352 146.329 -36.4207C147.85 -35.2222 148.736 -33.382 148.736 -31.4431V4.95558C148.736 8.34417 147.113 11.529 144.39 13.5306C141.661 15.5218 138.145 16.0743 134.935 15.037L100.47 3.77311ZM134.127 45.2856C133.084 42.0534 130.568 39.5204 127.358 38.4832L92.9083 27.2346C91.0719 26.6354 89.065 26.9169 87.457 27.9847C85.8491 29.0638 84.817 30.8203 84.6513 32.7591C84.6513 32.7591 84.4438 32.1444 84.4075 35.8139C84.2516 52.9528 89.8428 69.4923 99.8951 82.899C101.959 85.6513 101.42 84.6763 101.42 84.6763C102.69 86.1409 104.547 86.944 106.466 86.8651C108.4 86.7869 110.19 85.8281 111.321 84.2539L132.627 54.7769C134.608 52.0412 135.163 48.5017 134.127 45.2856ZM161.003 64.9058C164.374 64.9058 167.543 66.5324 169.535 69.2687L190.83 98.7401C191.961 100.309 192.33 102.311 191.811 104.188C191.298 106.054 189.96 107.586 188.175 108.336C188.175 108.336 189.259 108.123 186.018 109.243C170.235 114.711 152.855 114.951 136.683 109.504C133.214 108.337 133.867 108.321 133.867 108.321C132.077 107.565 130.734 106.043 130.221 104.172C129.691 102.295 130.055 100.283 131.186 98.7143L152.481 69.2687C154.457 66.5324 157.627 64.9058 161.003 64.9058ZM229.118 27.2241L194.649 38.4832C191.443 39.5204 188.917 42.0534 187.885 45.2856C186.837 48.5017 187.392 52.0406 189.384 54.7721L210.665 84.2231C211.805 85.8021 213.595 86.7458 215.529 86.84C217.459 86.9231 219.314 86.1045 220.575 84.6352C220.575 84.6352 220.39 85.2552 222.562 82.3101C232.713 68.534 237.872 51.8374 237.576 35.0686C237.519 31.6283 237.374 32.7333 237.374 32.7333C237.209 30.7945 236.182 29.038 234.569 27.9694C232.961 26.9064 230.959 26.6194 229.118 27.2241ZM187.066 15.0376C183.855 16.0748 180.349 15.5174 177.615 13.5311C174.887 11.5295 173.264 8.34417 173.264 4.95245V-31.4783C173.264 -33.4122 174.146 -35.2525 175.666 -36.4459C177.17 -37.6556 179.146 -38.1034 181.029 -37.6655C181.029 -37.6655 180.027 -38.1348 183.311 -37.1339C199.275 -32.229 213.476 -22.1482 223.372 -8.1837C225.493 -5.20216 224.959 -5.56671 224.959 -5.56671C225.965 -3.90455 226.163 -1.87645 225.489 -0.0521355C224.809 1.7666 223.347 3.17882 221.504 3.7738L187.066 15.0376Z" fill="url(#paint4_linear_226_222)"/>
<path fill-rule="evenodd" clip-rule="evenodd" d="M494.002 74C453.682 74 421 41.0976 421 0.501778C421 -40.0939 453.682 -73 494.002 -73C534.318 -73 567 -40.0935 567 0.502289C567 41.098 534.318 74 494.002 74ZM494.002 7.60767C497.902 7.60767 501.06 4.42859 501.06 0.501778C501.06 -3.42503 497.902 -6.60767 494.002 -6.60767C490.099 -6.60767 486.941 -3.42503 486.941 0.501778C486.94 4.42859 490.099 7.60767 494.002 7.60767ZM449.813 -23.4346C448.469 -23.8728 447.401 -24.902 446.906 -26.2327C446.421 -27.5667 446.557 -29.0459 447.28 -30.2545C447.28 -30.2545 447.135 -30.099 447.187 -30.2262C447.212 -30.2879 447.284 -30.4156 447.441 -30.6593C447.592 -30.894 447.822 -31.236 448.166 -31.7296C455.151 -41.7858 465.325 -49.4295 477.198 -53.1995C478.204 -53.5174 478.754 -53.665 479.051 -53.7273C479.127 -53.7434 479.186 -53.7538 479.233 -53.7601C479.295 -53.7682 479.333 -53.769 479.356 -53.7658C479.382 -53.7624 479.389 -53.7541 479.388 -53.7454C479.387 -53.7323 479.368 -53.7183 479.368 -53.7183C480.739 -54.0385 482.185 -53.7183 483.29 -52.8301C484.401 -51.9535 485.047 -50.6078 485.047 -49.1897V-22.5698C485.047 -20.0916 483.863 -17.7624 481.875 -16.2985C479.883 -14.8423 477.316 -14.4382 474.973 -15.1968L449.813 -23.4346ZM474.382 6.92528C473.621 4.56145 471.785 2.70893 469.441 1.95037L444.293 -6.27622C442.953 -6.71442 441.487 -6.50857 440.314 -5.72759C439.14 -4.93845 438.386 -3.65381 438.265 -2.23592C438.265 -2.23592 438.114 -2.68545 438.088 -0.00176239C437.974 12.5326 442.055 24.6287 449.393 34.4336C450.9 36.4465 450.506 35.7334 450.506 35.7334C451.434 36.8045 452.789 37.3919 454.19 37.3342C455.602 37.277 456.909 36.5758 457.734 35.4245L473.287 13.8667C474.734 11.8659 475.139 9.27739 474.382 6.92528ZM494.002 21.2744C496.463 21.2744 498.777 22.464 500.23 24.4652L515.776 46.0189C516.602 47.1666 516.871 48.6304 516.492 50.0029C516.117 51.3676 515.141 52.4883 513.838 53.037C513.838 53.037 514.629 52.8811 512.263 53.7004C500.741 57.6993 488.054 57.8749 476.249 53.8913C473.716 53.0374 474.193 53.0261 474.193 53.0261C472.886 52.4729 471.906 51.3596 471.531 49.9911C471.145 48.6187 471.41 47.1472 472.236 46L487.781 24.4652C489.224 22.464 491.538 21.2744 494.002 21.2744ZM543.726 -6.28387L518.563 1.95037C516.223 2.70893 514.38 4.56145 513.626 6.92528C512.861 9.27739 513.266 11.8655 514.72 13.8631L530.255 35.4019C531.088 36.5568 532.394 37.2469 533.806 37.3158C535.215 37.3766 536.57 36.7779 537.49 35.7033C537.49 35.7033 537.354 36.1568 538.941 34.0029C546.35 23.9279 550.116 11.7169 549.901 -0.546829C549.859 -3.06288 549.753 -2.25477 549.753 -2.25477C549.632 -3.67266 548.883 -4.95731 547.706 -5.7388C546.531 -6.51621 545.07 -6.72614 543.726 -6.28387ZM513.028 -15.1964C510.684 -14.4379 508.125 -14.8455 506.129 -16.2981C504.138 -17.762 502.953 -20.0916 502.953 -22.5721V-49.2155C502.953 -50.6298 503.596 -51.9757 504.706 -52.8485C505.804 -53.7332 507.246 -54.0607 508.621 -53.7405C508.621 -53.7405 507.89 -54.0836 510.287 -53.3517C521.941 -49.7645 532.307 -42.392 539.531 -32.1791C541.08 -29.9986 540.69 -30.2652 540.69 -30.2652C541.424 -29.0496 541.569 -27.5664 541.077 -26.2322C540.581 -24.902 539.513 -23.8692 538.168 -23.4341L513.028 -15.1964Z" fill="url(#paint5_linear_226_222)"/>
</g>
<defs>
<linearGradient id="paint0_linear_226_222" x1="1.08788e-08" y1="75" x2="1920" y2="75" gradientUnits="userSpaceOnUse">
<stop stop-color="#2A5CDC"/>
<stop offset="1" stop-color="#4B7EFF"/>
</linearGradient>
<linearGradient id="paint1_linear_226_222" x1="773" y1="106.435" x2="913.233" y2="106.435" gradientUnits="userSpaceOnUse">
<stop stop-color="#4B7EFF"/>
<stop offset="1" stop-color="#2A5CDC"/>
</linearGradient>
<linearGradient id="paint2_linear_226_222" x1="1331.5" y1="-35" x2="1331.5" y2="145" gradientUnits="userSpaceOnUse">
<stop stop-color="#4B7EFF"/>
<stop offset="1" stop-color="#2A5CDC"/>
</linearGradient>
<linearGradient id="paint3_linear_226_222" x1="1778.5" y1="-117" x2="1778.5" y2="145" gradientUnits="userSpaceOnUse">
<stop stop-color="#4B7EFF"/>
<stop offset="1" stop-color="#2A5CDC"/>
</linearGradient>
<linearGradient id="paint4_linear_226_222" x1="61" y1="36.5" x2="261" y2="36.5" gradientUnits="userSpaceOnUse">
<stop stop-color="#2A5CDC"/>
<stop offset="1" stop-color="#4B7EFF"/>
</linearGradient>
<linearGradient id="paint5_linear_226_222" x1="494" y1="-73" x2="494" y2="74" gradientUnits="userSpaceOnUse">
<stop stop-color="#2A5CDC"/>
<stop offset="1" stop-color="#4B7EFF"/>
</linearGradient>
<clipPath id="clip0_226_222">
<rect width="1920" height="150" fill="white"/>
</clipPath>
</defs>
</svg>
