<svg width="56" height="50" viewBox="0 0 56 50" fill="none" xmlns="http://www.w3.org/2000/svg">
<path fill-rule="evenodd" clip-rule="evenodd" d="M28 6.17283C15.9725 6.17283 6.22222 15.8457 6.22222 27.7777C6.22222 34.5293 9.34029 40.556 14.2376 44.5227C15.5685 45.6008 15.7665 47.5451 14.6799 48.8655C13.5932 50.1859 11.6333 50.3823 10.3024 49.3042C4.01988 44.2155 0 36.4611 0 27.7777C0 12.4365 12.536 0 28 0C43.464 0 56 12.4365 56 27.7777C56 36.4611 51.9801 44.2155 45.6976 49.3042C44.3667 50.3823 42.4068 50.1859 41.3201 48.8655C40.2335 47.5451 40.4315 45.6008 41.7624 44.5227C46.6597 40.556 49.7778 34.5293 49.7778 27.7777C49.7778 15.8457 40.0275 6.17283 28 6.17283Z" fill="#4277FF"/>
<path fill-rule="evenodd" clip-rule="evenodd" d="M42.666 20.9694C43.3638 22.5271 42.6567 24.3511 41.0865 25.0434L29.8865 29.9816C28.3164 30.6739 26.4779 29.9724 25.78 28.4147C25.0822 26.8571 25.7893 25.0331 27.3595 24.3408L38.5595 19.4025C40.1296 18.7103 41.9681 19.4118 42.666 20.9694Z" fill="#4277FF"/>
</svg>
