<svg width="55" height="60" viewBox="0 0 55 60" fill="none" xmlns="http://www.w3.org/2000/svg">
<path fill-rule="evenodd" clip-rule="evenodd" d="M29.1321 58.5738L29.1326 58.5743C29.2521 58.7006 29.3718 58.827 29.4916 58.9535" fill="#4277FF"/>
<path fill-rule="evenodd" clip-rule="evenodd" d="M34.6713 58.5743C34.5517 58.7006 34.432 58.827 34.3123 58.9535C32.9914 60.3488 30.8125 60.3488 29.4916 58.9535C29.3718 58.827 29.2521 58.7006 29.1326 58.5743L29.1321 58.5738C26.5068 55.8009 23.93 53.0791 21.5398 50.3623C20.8962 49.6307 19.9863 49.2061 19.0289 49.2061H10.5445C9.02847 49.2061 7.79949 47.9375 7.79949 46.3726V46.3035C7.79949 44.7768 8.99849 43.5391 10.4775 43.5391H11.3481C12.3464 43.5391 13.1556 42.7038 13.1556 41.6733C13.1556 40.6429 12.3464 39.8076 11.3481 39.8076H5.99201C4.40192 39.8076 3.1129 38.477 3.1129 36.8357C3.1129 35.1943 4.40192 33.8637 5.99201 33.8637H7.12998C8.7939 33.8637 10.1428 32.4714 10.1428 30.7538C10.1428 29.0362 8.7939 27.6439 7.12998 27.6439H3.1129C1.44898 27.6439 0.100098 26.2515 0.100098 24.5339C0.100098 22.8164 1.44898 21.424 3.1129 21.424H7.12998C8.7939 21.424 10.1428 20.0316 10.1428 18.3141C10.1428 16.5965 8.7939 15.2041 7.12998 15.2041H5.79095C4.31191 15.2041 3.1129 13.9665 3.1129 12.4397C3.1129 10.913 4.31191 9.67535 5.79095 9.67535H14.1707C15.274 9.67535 16.1684 8.75211 16.1684 7.61322C16.1684 6.46566 15.2608 5.53886 14.1492 5.55121L13.6577 5.55667C12.2755 5.57203 11.1471 4.41966 11.1471 2.9928V2.77726C11.1471 1.24342 12.3516 0 13.8376 0H31.9019C44.6587 0 55.0001 11.0152 55.0001 24.603C55.0001 37.1024 45.2271 47.4249 34.6713 58.5743ZM31.9322 26.8744C33.1677 26.8744 34.168 25.8419 34.168 24.5665C34.168 23.2912 33.1677 22.2575 31.9322 22.2575C30.6957 22.2575 29.6953 23.2912 29.6953 24.5665C29.6951 25.8419 30.6957 26.8744 31.9322 26.8744ZM17.9338 16.7924C17.508 16.6501 17.1697 16.3158 17.0126 15.8837C16.9321 15.6562 16.9057 15.4158 16.9319 15.1819C16.9411 15.0999 17.3659 14.166 17.4119 14.0983C19.6249 10.8322 22.8479 8.34969 26.6094 7.12523C26.7698 7.07324 27.8585 6.92579 28.0206 6.97209C28.2071 7.02539 28.3838 7.11711 28.5393 7.24519C28.8909 7.52987 29.0959 7.96699 29.0959 8.42752V17.0733C29.0959 17.8782 28.7206 18.6347 28.0908 19.1101C27.4598 19.5831 26.6466 19.7143 25.9041 19.468L17.9338 16.7924ZM25.717 26.6528C25.4759 25.885 24.894 25.2833 24.1517 25.037L16.1847 22.3651C15.7601 22.2228 15.296 22.2896 14.9241 22.5433C14.7581 22.6577 14.6187 22.8042 14.5117 22.9723C14.4209 23.115 14.2204 24.2321 14.2188 24.403C14.1828 28.474 15.4759 32.4026 17.8005 35.5871C17.8478 35.6518 18.5757 36.3574 18.647 36.3913C18.8555 36.4906 19.0858 36.5391 19.3202 36.5292C19.7675 36.5106 20.1813 36.2828 20.4428 35.9089L25.3702 28.9073C25.8284 28.2574 25.9568 27.4167 25.717 26.6528ZM31.9327 31.3132C32.7124 31.3132 33.4453 31.6995 33.9059 32.3495L38.8308 39.3498C39.0923 39.7226 39.1774 40.198 39.0575 40.6438C38.9948 40.878 38.8788 41.0901 38.7225 41.2643C38.6706 41.3221 37.79 41.8191 37.7178 41.8447C34.0678 43.1434 30.0484 43.2005 26.3085 41.9067C26.1484 41.8514 25.1842 41.3116 25.0788 41.1755C24.9577 41.0193 24.8668 40.8378 24.8139 40.64C24.6916 40.1942 24.7756 39.7163 25.0371 39.3437L29.962 32.3495C30.419 31.6995 31.152 31.3132 31.9327 31.3132ZM47.6849 22.3627L39.7133 25.0371C38.9721 25.2834 38.3879 25.8851 38.1491 26.6529C37.9069 27.4168 38.0352 28.2574 38.4958 28.9062L43.4172 35.9017C43.6811 36.2768 44.095 36.5009 44.5422 36.5233C44.7408 36.532 44.9361 36.4984 45.1173 36.4276C45.2739 36.3665 46.0689 35.5861 46.1686 35.4473C48.5161 32.1751 49.7094 28.2091 49.6411 24.226C49.6397 24.1426 49.4537 23.1352 49.4144 23.0622C49.3024 22.8542 49.143 22.6741 48.9455 22.5397C48.5737 22.2872 48.1108 22.2191 47.6849 22.3627ZM37.9601 19.4681C37.2176 19.7144 36.4068 19.582 35.7746 19.1102C35.1438 18.6348 34.7683 17.8782 34.7683 17.0725V8.41913C34.7683 7.95977 34.9723 7.52266 35.3238 7.23915C35.5072 7.08764 35.721 6.98645 35.9459 6.93989C36.0228 6.92398 37.0167 7.05225 37.0917 7.07574C40.7837 8.2408 44.0679 10.6353 46.3564 13.9523C46.4556 14.0955 46.9274 15.1116 46.9355 15.2875C46.9448 15.4879 46.9153 15.6907 46.8458 15.8838C46.6887 16.3158 46.3504 16.6512 45.9246 16.7925L37.9601 19.4681Z" fill="#4277FF"/>
</svg>
