<svg width="88" height="88" viewBox="0 0 88 88" fill="none" xmlns="http://www.w3.org/2000/svg">
<g filter="url(#filter0_d_242_105)">
<path d="M84 42C84 19.9087 66.0913 2 44 2C21.9087 2 4 19.9087 4 42C4 61.965 18.6275 78.5134 37.75 81.5141V53.5625H27.5938V42H37.75V33.1875C37.75 23.1625 43.7219 17.625 52.8588 17.625C57.235 17.625 61.8125 18.4063 61.8125 18.4063V28.25H56.7688C51.7997 28.25 50.25 31.3334 50.25 34.4969V42H61.3438L59.5703 53.5625H50.25V81.5141C69.3725 78.5134 84 61.9653 84 42Z" fill="#1877F2"/>
<path d="M59.5703 53.5625L61.3438 42H50.25V34.4969C50.25 31.3334 51.7997 28.25 56.7688 28.25H61.8125V18.4063C61.8125 18.4063 57.235 17.625 52.8588 17.625C43.7219 17.625 37.75 23.1625 37.75 33.1875V42H27.5938V53.5625H37.75V81.5141C39.8176 81.8381 41.9072 82.0006 44 82C46.0928 82.0006 48.1825 81.8382 50.25 81.5141V53.5625H59.5703Z" fill="white"/>
</g>
<defs>
<filter id="filter0_d_242_105" x="0" y="0" width="88" height="88" filterUnits="userSpaceOnUse" color-interpolation-filters="sRGB">
<feFlood flood-opacity="0" result="BackgroundImageFix"/>
<feColorMatrix in="SourceAlpha" type="matrix" values="0 0 0 0 0 0 0 0 0 0 0 0 0 0 0 0 0 0 127 0" result="hardAlpha"/>
<feOffset dy="2"/>
<feGaussianBlur stdDeviation="2"/>
<feComposite in2="hardAlpha" operator="out"/>
<feColorMatrix type="matrix" values="0 0 0 0 0 0 0 0 0 0 0 0 0 0 0 0 0 0 0.1 0"/>
<feBlend mode="normal" in2="BackgroundImageFix" result="effect1_dropShadow_242_105"/>
<feBlend mode="normal" in="SourceGraphic" in2="effect1_dropShadow_242_105" result="shape"/>
</filter>
</defs>
</svg>
