<svg width="100%" height="100%s" viewBox="0 0 22 25" fill="none" xmlns="http://www.w3.org/2000/svg">
<path fill-rule="evenodd" clip-rule="evenodd" d="M11.634 23.9295L11.6341 23.9297C11.6821 23.9802 11.73 24.0308 11.778 24.0814" fill="#4277FF"/>
<path fill-rule="evenodd" clip-rule="evenodd" d="M13.8537 23.9297C13.8057 23.9802 13.7578 24.0308 13.7098 24.0814C13.1805 24.6395 12.3073 24.6395 11.778 24.0814C11.73 24.0308 11.6821 23.9802 11.6341 23.9297L11.634 23.9295C10.5819 22.8203 9.54931 21.7316 8.59152 20.6449C8.3336 20.3523 7.96895 20.1824 7.58531 20.1824H4.18537C3.57785 20.1824 3.08537 19.675 3.08537 19.049V19.0214C3.08537 18.4107 3.56584 17.9156 4.15854 17.9156H4.5074C4.90742 17.9156 5.23171 17.5815 5.23171 17.1693C5.23171 16.7572 4.90742 16.423 4.5074 16.423H2.36106C1.72386 16.423 1.20732 15.8908 1.20732 15.2343C1.20732 14.5777 1.72386 14.0455 2.36106 14.0455H2.81707C3.48386 14.0455 4.02439 13.4885 4.02439 12.8015C4.02439 12.1145 3.48386 11.5575 2.81707 11.5575H1.20732C0.540534 11.5575 0 11.0006 0 10.3136C0 9.62654 0.540534 9.0696 1.20732 9.0696H2.81707C3.48386 9.0696 4.02439 8.51265 4.02439 7.82562C4.02439 7.1386 3.48386 6.58165 2.81707 6.58165H2.28049C1.68779 6.58165 1.20732 6.08659 1.20732 5.4759C1.20732 4.8652 1.68779 4.37014 2.28049 4.37014H5.63848C6.08061 4.37014 6.43902 4.00084 6.43902 3.54529C6.43902 3.08626 6.07533 2.71554 5.62986 2.72048L5.43293 2.72267C4.87903 2.72881 4.42683 2.26786 4.42683 1.69712V1.6109C4.42683 0.997368 4.90954 0.5 5.505 0.5H12.7439C17.8559 0.5 22 4.90606 22 10.3412C22 15.3409 18.0837 19.47 13.8537 23.9297ZM12.756 11.2498C13.2512 11.2498 13.652 10.8368 13.652 10.3266C13.652 9.81647 13.2512 9.40299 12.756 9.40299C12.2605 9.40299 11.8596 9.81647 11.8596 10.3266C11.8596 10.8368 12.2605 11.2498 12.756 11.2498ZM7.14649 7.21698C6.97583 7.16004 6.84026 7.02633 6.77734 6.85347C6.74505 6.76249 6.73447 6.66633 6.74498 6.57278C6.74866 6.53996 6.91891 6.16639 6.93732 6.13934C7.82413 4.8329 9.1157 3.83987 10.623 3.35009C10.6873 3.32929 11.1236 3.27031 11.1885 3.28884C11.2633 3.31015 11.3341 3.34684 11.3964 3.39808C11.5373 3.51195 11.6194 3.6868 11.6194 3.87101V7.32933C11.6194 7.65128 11.469 7.95387 11.2167 8.14405C10.9638 8.33323 10.638 8.38572 10.3404 8.28718L7.14649 7.21698ZM10.2654 11.1611C10.1688 10.854 9.93562 10.6133 9.63815 10.5148L6.44558 9.44605C6.27543 9.38912 6.08944 9.41586 5.94041 9.51732C5.87389 9.56309 5.81801 9.62167 5.77515 9.6889C5.73875 9.74601 5.65843 10.1929 5.65776 10.2612C5.64333 11.8896 6.1615 13.461 7.09306 14.7348C7.112 14.7607 7.40371 15.043 7.43228 15.0565C7.51582 15.0962 7.60813 15.1156 7.70205 15.1117C7.88128 15.1042 8.04712 15.0131 8.1519 14.8636L10.1264 12.0629C10.3101 11.803 10.3615 11.4667 10.2654 11.1611ZM12.7562 13.0253C13.0687 13.0253 13.3624 13.1798 13.547 13.4398L15.5205 16.2399C15.6253 16.389 15.6594 16.5792 15.6114 16.7575C15.5862 16.8512 15.5397 16.936 15.4771 17.0057C15.4563 17.0288 15.1034 17.2276 15.0745 17.2379C13.6118 17.7574 12.0011 17.7802 10.5025 17.2627C10.4383 17.2405 10.0519 17.0247 10.0097 16.9702C9.96114 16.9077 9.92471 16.8351 9.90352 16.756C9.85451 16.5777 9.88819 16.3865 9.99297 16.2375L11.9665 13.4398C12.1497 13.1798 12.4434 13.0253 12.7562 13.0253ZM19.0686 9.44509L15.8742 10.5148C15.5771 10.6134 15.343 10.854 15.2473 11.1611C15.1503 11.4667 15.2017 11.8029 15.3863 12.0625L17.3584 14.8607C17.4642 15.0107 17.63 15.1003 17.8092 15.1093C17.8888 15.1128 17.9671 15.0994 18.0397 15.071C18.1024 15.0466 18.421 14.7344 18.461 14.6789C19.4017 13.37 19.8799 11.7836 19.8525 10.1904C19.852 10.157 19.7774 9.75407 19.7617 9.72489C19.7168 9.64167 19.6529 9.56962 19.5738 9.51589C19.4247 9.41489 19.2393 9.38762 19.0686 9.44509ZM15.1716 8.28722C14.874 8.38576 14.5491 8.33281 14.2958 8.14409C14.043 7.95391 13.8926 7.65126 13.8926 7.32901V3.86765C13.8926 3.68391 13.9743 3.50906 14.1151 3.39566C14.1886 3.33505 14.2743 3.29458 14.3645 3.27596C14.3953 3.26959 14.7935 3.3209 14.8236 3.33029C16.3031 3.79632 17.6191 4.75412 18.5362 6.08092C18.576 6.13821 18.765 6.54465 18.7683 6.61501C18.772 6.69517 18.7602 6.77626 18.7323 6.85351C18.6694 7.02631 18.5338 7.16049 18.3632 7.21702L15.1716 8.28722Z" fill="#4277FF"/>
</svg>
