<svg width="24" height="25" viewBox="0 0 24 25" fill="none" xmlns="http://www.w3.org/2000/svg">
<path d="M22.0882 3.50634C21.4502 2.6937 20.6489 2.04013 19.742 1.59273C18.8351 1.14533 17.8452 0.915232 16.8436 0.919006C15.13 0.864388 13.4616 1.5032 12.1818 2.70401C10.902 1.5032 9.23358 0.864388 7.51993 0.919006C6.51838 0.915232 5.52851 1.14533 4.62161 1.59273C3.71472 2.04013 2.91338 2.6937 2.27533 3.50634C1.16464 4.92453 0.00267583 7.49223 0.773048 11.6769C2.00261 18.3593 11.2226 23.8431 11.6119 24.0676C11.7854 24.1694 11.9808 24.2229 12.1795 24.2229C12.3781 24.2229 12.5735 24.1694 12.747 24.0676C13.1386 23.8382 22.3586 18.3544 23.5859 11.6769C24.3609 7.49223 23.1989 4.92453 22.0882 3.50634ZM21.3027 11.2107C20.4333 15.9351 14.1141 20.3295 12.1818 21.5784C9.45926 19.8486 3.85803 15.5057 3.06668 11.2107C2.4688 7.96455 3.28696 6.07895 4.07947 5.06806C4.49858 4.53576 5.02441 4.1077 5.61923 3.81457C6.21406 3.52144 6.86314 3.37051 7.51993 3.37262C8.22141 3.31724 8.92456 3.45414 9.56081 3.76999C10.1971 4.08583 10.7447 4.56983 11.1504 5.17479C11.2504 5.36855 11.3979 5.53052 11.5777 5.64382C11.7574 5.75713 11.9627 5.81762 12.1722 5.819C12.3817 5.82038 12.5877 5.76259 12.7687 5.65166C12.9498 5.54073 13.0992 5.38071 13.2016 5.18829C13.6064 4.57861 14.1552 4.09052 14.7939 3.77213C15.4326 3.45374 16.139 3.31604 16.8436 3.37262C17.5018 3.36924 18.1525 3.51956 18.7488 3.81273C19.3451 4.10591 19.8723 4.53464 20.2923 5.06806C21.0824 6.07895 21.9006 7.96455 21.3027 11.2107Z" fill="black"/>
</svg>
