<svg width="26" height="25" viewBox="0 0 26 25" fill="none" xmlns="http://www.w3.org/2000/svg">
<path d="M12.2444 1.35062C12.5717 0.580729 12.7354 0.195785 12.9633 0.0772437C13.1612 -0.0257479 13.3936 -0.0257479 13.5915 0.0772437C13.8193 0.195785 13.983 0.580729 14.3103 1.35062L16.917 7.48288C17.0138 7.71047 17.0622 7.82427 17.1371 7.91141C17.2033 7.98852 17.2843 8.0502 17.3746 8.09242C17.4768 8.14015 17.595 8.15323 17.8313 8.17937L24.1987 8.88408C24.9981 8.97255 25.3977 9.01678 25.5757 9.20739C25.7302 9.37295 25.802 9.60479 25.7698 9.83401C25.7327 10.0979 25.4342 10.38 24.8371 10.9443L20.0807 15.439C19.9043 15.6057 19.8159 15.6892 19.7601 15.7907C19.7106 15.8807 19.6796 15.9805 19.6693 16.0836C19.6576 16.2003 19.6822 16.3221 19.7315 16.566L21.06 23.1337C21.2268 23.9583 21.3102 24.3705 21.1923 24.6068C21.0899 24.8123 20.9018 24.9555 20.684 24.9942C20.4332 25.0386 20.0851 24.8281 19.3887 24.407L13.8424 21.0525C13.6366 20.928 13.5336 20.8659 13.4242 20.8414C13.3274 20.8199 13.2273 20.8199 13.1305 20.8414C13.0211 20.8659 12.9182 20.928 12.7123 21.0525L7.16604 24.407C6.46972 24.8281 6.12156 25.0386 5.87077 24.9942C5.65292 24.9555 5.46485 24.8123 5.36244 24.6068C5.24456 24.3705 5.32795 23.9583 5.49475 23.1337L6.82321 16.566C6.87251 16.3221 6.89717 16.2003 6.88546 16.0836C6.8751 15.9805 6.84418 15.8807 6.79471 15.7907C6.7388 15.6892 6.65053 15.6057 6.47401 15.439L1.71773 10.9443C1.1206 10.38 0.822034 10.0979 0.784912 9.83401C0.752682 9.60479 0.824508 9.37295 0.979073 9.20739C1.15702 9.01678 1.55672 8.97255 2.35612 8.88408L8.72346 8.17937C8.95979 8.15323 9.07794 8.14015 9.18012 8.09242C9.27052 8.0502 9.35146 7.98852 9.4177 7.91141C9.49255 7.82427 9.54093 7.71047 9.63769 7.48288L12.2444 1.35062Z"/>
</svg>
